<svg width="291" height="145" viewBox="0 0 291 145" fill="none" xmlns="http://www.w3.org/2000/svg">
<path d="M279.319 7.6575C277.204 7.6575 275.49 5.9433 275.49 3.82873C275.49 1.71417 277.204 0 279.319 0C281.433 0 283.147 1.71417 283.147 3.82873C283.147 5.9433 281.433 7.6575 279.319 7.6575Z" fill="#EBF7FF"/>
<path d="M241.053 3.82873C241.053 5.93568 242.775 7.6575 244.882 7.6575C246.989 7.6575 248.711 5.93568 248.711 3.82873C248.711 1.72178 246.989 0 244.882 0C242.775 0 241.053 1.72178 241.053 3.82873Z" fill="#EBF7FF"/>
<path d="M206.617 3.82873C206.617 5.93568 208.339 7.6575 210.446 7.6575C212.553 7.6575 214.274 5.93568 214.274 3.82873C214.274 1.72178 212.553 0 210.446 0C208.339 0 206.617 1.72178 206.617 3.82873Z" fill="#EBF7FF"/>
<path d="M176.01 7.6575C173.896 7.6575 172.181 5.9433 172.181 3.82873C172.181 1.71417 173.896 0 176.01 0C178.125 0 179.839 1.71417 179.839 3.82873C179.839 5.9433 178.125 7.6575 176.01 7.6575Z" fill="#EBF7FF"/>
<path d="M141.574 7.6575C139.459 7.6575 137.745 5.9433 137.745 3.82873C137.745 1.71417 139.459 0 141.574 0C143.688 0 145.402 1.71417 145.402 3.82873C145.402 5.9433 143.688 7.6575 141.574 7.6575Z" fill="#EBF7FF"/>
<path d="M107.137 7.6575C105.023 7.6575 103.308 5.9433 103.308 3.82873C103.308 1.71417 105.023 0 107.137 0C109.252 0 110.966 1.71417 110.966 3.82873C110.966 5.9433 109.252 7.6575 107.137 7.6575Z" fill="#EBF7FF"/>
<path d="M72.7015 7.6575C70.5869 7.6575 68.8728 5.9433 68.8728 3.82873C68.8728 1.71417 70.5869 0 72.7015 0C74.8161 0 76.5303 1.71417 76.5303 3.82873C76.5303 5.9433 74.8161 7.6575 72.7015 7.6575Z" fill="#EBF7FF"/>
<path d="M38.265 7.6575C36.1504 7.6575 34.4362 5.9433 34.4362 3.82873C34.4362 1.71417 36.1504 0 38.265 0C40.3795 0 42.0938 1.71417 42.0938 3.82873C42.0938 5.9433 40.3795 7.6575 38.265 7.6575Z" fill="#EBF7FF"/>
<path d="M3.82846 7.6575C1.71389 7.6575 -0.00030756 5.9433 -0.00030756 3.82873C-0.00030756 1.71417 1.71389 0 3.82846 0C5.94303 0 7.65723 1.71417 7.65723 3.82873C7.65723 5.9433 5.94303 7.6575 3.82846 7.6575Z" fill="#EBF7FF"/>
<path d="M279.319 35.126C277.204 35.126 275.49 33.4118 275.49 31.2973C275.49 29.1827 277.204 27.4685 279.319 27.4685C281.433 27.4685 283.147 29.1827 283.147 31.2973C283.147 33.4118 281.433 35.126 279.319 35.126Z" fill="#EBF7FF"/>
<path d="M241.053 31.2973C241.053 33.4042 242.775 35.126 244.882 35.126C246.989 35.126 248.711 33.4042 248.711 31.2973C248.711 29.1903 246.989 27.4685 244.882 27.4685C242.775 27.4685 241.053 29.1903 241.053 31.2973Z" fill="#EBF7FF"/>
<path d="M206.617 31.2973C206.617 33.4042 208.339 35.126 210.446 35.126C212.553 35.126 214.274 33.4042 214.274 31.2973C214.274 29.1903 212.553 27.4685 210.446 27.4685C208.339 27.4685 206.617 29.1903 206.617 31.2973Z" fill="#EBF7FF"/>
<path d="M176.01 35.126C173.896 35.126 172.181 33.4118 172.181 31.2973C172.181 29.1827 173.896 27.4685 176.01 27.4685C178.125 27.4685 179.839 29.1827 179.839 31.2973C179.839 33.4118 178.125 35.126 176.01 35.126Z" fill="#EBF7FF"/>
<path d="M141.574 35.126C139.459 35.126 137.745 33.4118 137.745 31.2973C137.745 29.1827 139.459 27.4685 141.574 27.4685C143.688 27.4685 145.402 29.1827 145.402 31.2973C145.402 33.4118 143.688 35.126 141.574 35.126Z" fill="#EBF7FF"/>
<path d="M107.137 35.126C105.023 35.126 103.308 33.4118 103.308 31.2973C103.308 29.1827 105.023 27.4685 107.137 27.4685C109.252 27.4685 110.966 29.1827 110.966 31.2973C110.966 33.4118 109.252 35.126 107.137 35.126Z" fill="#EBF7FF"/>
<path d="M72.7015 35.126C70.5869 35.126 68.8728 33.4118 68.8728 31.2973C68.8728 29.1827 70.5869 27.4685 72.7015 27.4685C74.8161 27.4685 76.5303 29.1827 76.5303 31.2973C76.5303 33.4118 74.8161 35.126 72.7015 35.126Z" fill="#EBF7FF"/>
<path d="M38.265 35.126C36.1504 35.126 34.4362 33.4118 34.4362 31.2973C34.4362 29.1827 36.1504 27.4685 38.265 27.4685C40.3795 27.4685 42.0938 29.1827 42.0938 31.2973C42.0938 33.4118 40.3795 35.126 38.265 35.126Z" fill="#EBF7FF"/>
<path d="M3.82846 35.126C1.71389 35.126 -0.00030756 33.4118 -0.00030756 31.2973C-0.00030756 29.1827 1.71389 27.4685 3.82846 27.4685C5.94303 27.4685 7.65723 29.1827 7.65723 31.2973C7.65723 33.4118 5.94303 35.126 3.82846 35.126Z" fill="#EBF7FF"/>
<path d="M279.319 62.5945C277.204 62.5945 275.49 60.8803 275.49 58.7658C275.49 56.6512 277.204 54.937 279.319 54.937C281.433 54.937 283.147 56.6512 283.147 58.7658C283.147 60.8803 281.433 62.5945 279.319 62.5945Z" fill="#EBF7FF"/>
<path d="M241.053 58.7658C241.053 60.8727 242.775 62.5945 244.882 62.5945C246.989 62.5945 248.711 60.8727 248.711 58.7658C248.711 56.6588 246.989 54.937 244.882 54.937C242.775 54.937 241.053 56.6588 241.053 58.7658Z" fill="#EBF7FF"/>
<path d="M206.617 58.7658C206.617 60.8727 208.339 62.5945 210.446 62.5945C212.553 62.5945 214.274 60.8727 214.274 58.7658C214.274 56.6588 212.553 54.937 210.446 54.937C208.339 54.937 206.617 56.6588 206.617 58.7658Z" fill="#EBF7FF"/>
<path d="M176.01 62.5945C173.896 62.5945 172.181 60.8803 172.181 58.7658C172.181 56.6512 173.896 54.937 176.01 54.937C178.125 54.937 179.839 56.6512 179.839 58.7658C179.839 60.8803 178.125 62.5945 176.01 62.5945Z" fill="#EBF7FF"/>
<path d="M141.574 62.5945C139.459 62.5945 137.745 60.8803 137.745 58.7658C137.745 56.6512 139.459 54.937 141.574 54.937C143.688 54.937 145.402 56.6512 145.402 58.7658C145.402 60.8803 143.688 62.5945 141.574 62.5945Z" fill="#EBF7FF"/>
<path d="M107.137 62.5945C105.023 62.5945 103.308 60.8803 103.308 58.7658C103.308 56.6512 105.023 54.937 107.137 54.937C109.252 54.937 110.966 56.6512 110.966 58.7658C110.966 60.8803 109.252 62.5945 107.137 62.5945Z" fill="#EBF7FF"/>
<path d="M72.7015 62.5945C70.5869 62.5945 68.8728 60.8803 68.8728 58.7658C68.8728 56.6512 70.5869 54.937 72.7015 54.937C74.8161 54.937 76.5303 56.6512 76.5303 58.7658C76.5303 60.8803 74.8161 62.5945 72.7015 62.5945Z" fill="#EBF7FF"/>
<path d="M38.265 62.5945C36.1504 62.5945 34.4362 60.8803 34.4362 58.7658C34.4362 56.6512 36.1504 54.937 38.265 54.937C40.3795 54.937 42.0938 56.6512 42.0938 58.7658C42.0938 60.8803 40.3795 62.5945 38.265 62.5945Z" fill="#EBF7FF"/>
<path d="M3.82846 62.5945C1.71389 62.5945 -0.00030756 60.8803 -0.00030756 58.7658C-0.00030756 56.6512 1.71389 54.937 3.82846 54.937C5.94303 54.937 7.65723 56.6512 7.65723 58.7658C7.65723 60.8803 5.94303 62.5945 3.82846 62.5945Z" fill="#EBF7FF"/>
<path d="M275.49 86.2343C275.49 88.3412 277.212 90.063 279.319 90.063C281.426 90.063 283.147 88.3412 283.147 86.2343C283.147 84.1273 281.426 82.4055 279.319 82.4055C277.212 82.4055 275.49 84.1273 275.49 86.2343Z" fill="#EBF7FF"/>
<path d="M241.053 86.2343C241.053 88.3412 242.775 90.063 244.882 90.063C246.989 90.063 248.711 88.3412 248.711 86.2343C248.711 84.1273 246.989 82.4055 244.882 82.4055C242.775 82.4055 241.053 84.1273 241.053 86.2343Z" fill="#EBF7FF"/>
<path d="M206.617 86.2343C206.617 88.3412 208.339 90.063 210.446 90.063C212.553 90.063 214.274 88.3412 214.274 86.2343C214.274 84.1273 212.553 82.4055 210.446 82.4055C208.339 82.4055 206.617 84.1273 206.617 86.2343Z" fill="#EBF7FF"/>
<path d="M172.181 86.2343C172.181 88.3412 173.903 90.063 176.01 90.063C178.117 90.063 179.839 88.3412 179.839 86.2343C179.839 84.1273 178.117 82.4055 176.01 82.4055C173.903 82.4055 172.181 84.1273 172.181 86.2343Z" fill="#EBF7FF"/>
<path d="M137.745 86.2343C137.745 88.3412 139.467 90.063 141.574 90.063C143.681 90.063 145.402 88.3412 145.402 86.2343C145.402 84.1273 143.681 82.4055 141.574 82.4055C139.467 82.4055 137.745 84.1273 137.745 86.2343Z" fill="#EBF7FF"/>
<path d="M103.308 86.2343C103.308 88.3412 105.03 90.063 107.137 90.063C109.244 90.063 110.966 88.3412 110.966 86.2343C110.966 84.1273 109.244 82.4055 107.137 82.4055C105.03 82.4055 103.308 84.1273 103.308 86.2343Z" fill="#EBF7FF"/>
<path d="M68.8728 86.2343C68.8728 88.3412 70.5946 90.063 72.7015 90.063C74.8085 90.063 76.5303 88.3412 76.5303 86.2343C76.5303 84.1273 74.8085 82.4055 72.7015 82.4055C70.5946 82.4055 68.8728 84.1273 68.8728 86.2343Z" fill="#EBF7FF"/>
<path d="M34.4362 86.2343C34.4362 88.3412 36.158 90.063 38.265 90.063C40.3719 90.063 42.0938 88.3412 42.0938 86.2343C42.0938 84.1273 40.3719 82.4055 38.265 82.4055C36.158 82.4055 34.4362 84.1273 34.4362 86.2343Z" fill="#EBF7FF"/>
<path d="M-0.000307698 86.2343C-0.000307698 88.3412 1.72151 90.063 3.82846 90.063C5.93541 90.063 7.65723 88.3412 7.65723 86.2343C7.65723 84.1273 5.93541 82.4055 3.82846 82.4055C1.72151 82.4055 -0.000307698 84.1273 -0.000307698 86.2343Z" fill="#EBF7FF"/>
<path d="M275.49 113.703C275.49 115.81 277.212 117.532 279.319 117.532C281.426 117.532 283.147 115.81 283.147 113.703C283.147 111.596 281.426 109.874 279.319 109.874C277.212 109.874 275.49 111.596 275.49 113.703Z" fill="#EBF7FF"/>
<path d="M241.053 113.703C241.053 115.81 242.775 117.532 244.882 117.532C246.989 117.532 248.711 115.81 248.711 113.703C248.711 111.596 246.989 109.874 244.882 109.874C242.775 109.874 241.053 111.596 241.053 113.703Z" fill="#EBF7FF"/>
<path d="M206.617 113.703C206.617 115.81 208.339 117.532 210.446 117.532C212.553 117.532 214.274 115.81 214.274 113.703C214.274 111.596 212.553 109.874 210.446 109.874C208.339 109.874 206.617 111.596 206.617 113.703Z" fill="#EBF7FF"/>
<path d="M172.181 113.703C172.181 115.81 173.903 117.532 176.01 117.532C178.117 117.532 179.839 115.81 179.839 113.703C179.839 111.596 178.117 109.874 176.01 109.874C173.903 109.874 172.181 111.596 172.181 113.703Z" fill="#EBF7FF"/>
<path d="M137.745 113.703C137.745 115.81 139.467 117.532 141.574 117.532C143.681 117.532 145.402 115.81 145.402 113.703C145.402 111.596 143.681 109.874 141.574 109.874C139.467 109.874 137.745 111.596 137.745 113.703Z" fill="#EBF7FF"/>
<path d="M103.308 113.703C103.308 115.81 105.03 117.532 107.137 117.532C109.244 117.532 110.966 115.81 110.966 113.703C110.966 111.596 109.244 109.874 107.137 109.874C105.03 109.874 103.308 111.596 103.308 113.703Z" fill="#EBF7FF"/>
<path d="M68.8728 113.703C68.8728 115.81 70.5946 117.532 72.7015 117.532C74.8085 117.532 76.5303 115.81 76.5303 113.703C76.5303 111.596 74.8085 109.874 72.7015 109.874C70.5946 109.874 68.8728 111.596 68.8728 113.703Z" fill="#EBF7FF"/>
<path d="M34.4362 113.703C34.4362 115.81 36.158 117.532 38.265 117.532C40.3719 117.532 42.0938 115.81 42.0938 113.703C42.0938 111.596 40.3719 109.874 38.265 109.874C36.158 109.874 34.4362 111.596 34.4362 113.703Z" fill="#EBF7FF"/>
<path d="M-0.000307698 113.703C-0.000307698 115.81 1.72151 117.532 3.82846 117.532C5.93541 117.532 7.65723 115.81 7.65723 113.703C7.65723 111.596 5.93541 109.874 3.82846 109.874C1.72151 109.874 -0.000307698 111.596 -0.000307698 113.703Z" fill="#EBF7FF"/>
<path d="M275.49 141.171C275.49 143.278 277.212 145 279.319 145C281.426 145 283.147 143.278 283.147 141.171C283.147 139.064 281.426 137.342 279.319 137.342C277.212 137.342 275.49 139.064 275.49 141.171Z" fill="#EBF7FF"/>
<path d="M241.053 141.171C241.053 143.278 242.775 145 244.882 145C246.989 145 248.711 143.278 248.711 141.171C248.711 139.064 246.989 137.342 244.882 137.342C242.775 137.342 241.053 139.064 241.053 141.171Z" fill="#EBF7FF"/>
<path d="M206.617 141.171C206.617 143.278 208.339 145 210.446 145C212.553 145 214.274 143.278 214.274 141.171C214.274 139.064 212.553 137.342 210.446 137.342C208.339 137.342 206.617 139.064 206.617 141.171Z" fill="#EBF7FF"/>
<path d="M172.181 141.171C172.181 143.278 173.903 145 176.01 145C178.117 145 179.839 143.278 179.839 141.171C179.839 139.064 178.117 137.342 176.01 137.342C173.903 137.342 172.181 139.064 172.181 141.171Z" fill="#EBF7FF"/>
<path d="M137.745 141.171C137.745 143.278 139.467 145 141.574 145C143.681 145 145.402 143.278 145.402 141.171C145.402 139.064 143.681 137.342 141.574 137.342C139.467 137.342 137.745 139.064 137.745 141.171Z" fill="#EBF7FF"/>
<path d="M103.308 141.171C103.308 143.278 105.03 145 107.137 145C109.244 145 110.966 143.278 110.966 141.171C110.966 139.064 109.244 137.342 107.137 137.342C105.03 137.342 103.308 139.064 103.308 141.171Z" fill="#EBF7FF"/>
<path d="M68.8728 141.171C68.8728 143.278 70.5946 145 72.7015 145C74.8085 145 76.5303 143.278 76.5303 141.171C76.5303 139.064 74.8085 137.342 72.7015 137.342C70.5946 137.342 68.8728 139.064 68.8728 141.171Z" fill="#EBF7FF"/>
<path d="M34.4362 141.171C34.4362 143.278 36.158 145 38.265 145C40.3719 145 42.0938 143.278 42.0938 141.171C42.0938 139.064 40.3719 137.342 38.265 137.342C36.158 137.342 34.4362 139.064 34.4362 141.171Z" fill="#EBF7FF"/>
<path d="M-0.000307698 141.171C-0.000307698 143.278 1.72151 145 3.82846 145C5.93541 145 7.65723 143.278 7.65723 141.171C7.65723 139.064 5.93541 137.342 3.82846 137.342C1.72151 137.342 -0.000307698 139.064 -0.000307698 141.171Z" fill="#EBF7FF"/>
</svg>
